Coordinates
version=1
nRows=17
nColumns=24
inDegrees=yes

Units are S.I. units (second, meters, Newtons, ...)
Angles are in degrees.

endheader
time	pelvis_tilt	pelvis_list	pelvis_rotation	pelvis_tx	pelvis_ty	pelvis_tz	hip_flexion_r	hip_adduction_r	hip_rotation_r	knee_angle_r	ankle_angle_r	subtalar_angle_r	mtp_angle_r	hip_flexion_l	hip_adduction_l	hip_rotation_l	knee_angle_l	ankle_angle_l	subtalar_angle_l	mtp_angle_l	lumbar_extension	lumbar_bending	lumbar_rotation
     10.45000000	     65.85382102	      5.35362310	     -1.55951672	      0.56127825	      1.06038073	     -0.30580225	      1.24777082	    -13.80677456	      4.95295583	    -61.60369315	    -17.66314933	     -2.50997459	      0.00000000	      1.53129654	     -5.96073535	      1.12300318	    -65.63400312	     -6.51686869	     25.75265433	      0.00000000	      0.00000000	      0.00000000	      0.00000000
     10.46000000	     65.85122825	      5.35387290	     -1.56265158	      0.56128403	      1.06039304	     -0.30579342	      1.25011034	    -13.80589040	      4.95591496	    -61.60544372	    -17.65626441	     -2.50615670	      0.00000000	      1.53916891	     -5.96777959	      1.11922352	    -65.68945329	     -6.56033003	     25.76374402	      0.00000000	      0.00000000	      0.00000000	      0.00000000
     10.47000000	     65.84960899	      5.35412387	     -1.56491254	      0.56128695	      1.06040014	     -0.30578705	      1.25187488	    -13.80519395	      4.95924361	    -61.60634839	    -17.65372131	     -2.50802738	      0.00000000	      1.54628669	     -5.97119257	      1.11487844	    -65.72500605	     -6.60423087	     25.78128876	      0.00000000	      0.00000000	      0.00000000	      0.00000000
     10.48000000	     65.84756900	      5.35441641	     -1.56555303	      0.56129512	      1.06039465	     -0.30577764	      1.25425753	    -13.80483906	      4.96264766	    -61.60624657	    -17.65282324	     -2.51296877	      0.00000000	      1.55199836	     -5.97129337	      1.11025890	    -65.74434551	     -6.64148809	     25.80207365	      0.00000000	      0.00000000	      0.00000000	      0.00000000
     10.49000000	     65.84388308	      5.35557393	     -1.56539353	      0.56130559	      1.06038481	     -0.30576665	      1.25813244	    -13.80541873	      4.96595243	    -61.60479995	    -17.65152786	     -2.51864285	      0.00000000	      1.55597463	     -5.96944992	      1.10638458	    -65.75099830	     -6.66628459	     25.82245319	      0.00000000	      0.00000000	      0.00000000	      0.00000000
     10.50000000	     65.83821839	      5.35832666	     -1.56592103	      0.56131156	      1.06038326	     -0.30575925	      1.26371867	    -13.80752543	      4.96907275	    -61.60195295	    -17.64888993	     -2.52364666	      0.00000000	      1.55876144	     -5.96688120	      1.10390598	    -65.74665340	     -6.67556902	     25.83893678	      0.00000000	      0.00000000	      0.00000000	      0.00000000
     10.51000000	     65.83133687	      5.36228027	     -1.56780979	      0.56131357	      1.06039122	     -0.30575700	      1.27061701	    -13.81119419	      4.97183505	    -61.59818976	    -17.64522891	     -2.52785925	      0.00000000	      1.56166533	     -5.96342299	      1.10205744	    -65.73046161	     -6.66960144	     25.84855962	      0.00000000	      0.00000000	      0.00000000	      0.00000000
     10.52000000	     65.82448387	      5.36610221	     -1.57030374	      0.56131627	      1.06039844	     -0.30575721	      1.27811705	    -13.81569833	      4.97388180	    -61.59437319	    -17.64204120	     -2.53245050	      0.00000000	      1.56589172	     -5.95764509	      1.09891466	    -65.69995379	     -6.65149974	     25.84935978	      0.00000000	      0.00000000	      0.00000000	      0.00000000
     10.53000000	     65.81857147	      5.36869996	     -1.57189945	      0.56132223	      1.06039724	     -0.30575641	      1.28559110	    -13.81998786	      4.97479178	    -61.59119530	    -17.64169554	     -2.53956646	      0.00000000	      1.57160402	     -5.94821638	      1.09289015	    -65.65286004	     -6.62618404	     25.84105359	      0.00000000	      0.00000000	      0.00000000	      0.00000000
     10.54000000	     65.81374245	      5.37015395	     -1.57158136	      0.56133231	      1.06039076	     -0.30575286	      1.29271291	    -13.82346388	      4.97429964	    -61.58860244	    -17.64694635	     -2.55172755	      0.00000000	      1.57760225	     -5.93519873	      1.08417247	    -65.58846906	     -6.59924183	     25.82558274	      0.00000000	      0.00000000	      0.00000000	      0.00000000
     10.55000000	     65.80925461	      5.37165242	     -1.56956725	      0.56134265	      1.06038614	     -0.30574804	      1.29929109	    -13.82639193	      4.97235109	    -61.58567353	    -17.66028480	     -2.57102254	      0.00000000	      1.58174660	     -5.92014732	      1.07479160	    -65.50774616	     -6.57601394	     25.80699134	      0.00000000	      0.00000000	      0.00000000	      0.00000000
     10.56000000	     65.80418928	      5.37455397	     -1.56712137	      0.56134532	      1.06039016	     -0.30574631	      1.30492747	    -13.82963491	      4.96892490	    -61.58104849	    -17.68315531	     -2.59826205	      0.00000000	      1.58233056	     -5.90502158	      1.06708715	    -65.41219740	     -6.56087623	     25.79032659	      0.00000000	      0.00000000	      0.00000000	      0.00000000
     10.57000000	     65.79865013	      5.37915562	     -1.56556414	      0.56134043	      1.06040569	     -0.30574807	      1.30901479	    -13.83402057	      4.96388645	    -61.57353913	    -17.71513374	     -2.63232055	      0.00000000	      1.57945752	     -5.89073815	      1.06162986	    -65.30253412	     -6.55654819	     25.77980631	      0.00000000	      0.00000000	      0.00000000	      0.00000000
     10.58000000	     65.79386840	      5.38440755	     -1.56540720	      0.56133815	      1.06042524	     -0.30574582	      1.31127178	    -13.83982615	      4.95715902	    -61.56256848	    -17.75328999	     -2.66988385	      0.00000000	      1.57469175	     -5.87675378	      1.05645240	    -65.17864802	     -6.56337652	     25.77697638	      0.00000000	      0.00000000	      0.00000000	      0.00000000
     10.59000000	     65.79102630	      5.38916727	     -1.56649721	      0.56134290	      1.06043887	     -0.30573493	      1.31232837	    -13.84660986	      4.94919178	    -61.54848484	    -17.79205382	     -2.70573251	      0.00000000	      1.56930828	     -5.86229217	      1.04843349	    -65.04085280	     -6.57877609	     25.77968811	      0.00000000	      0.00000000	      0.00000000	      0.00000000
     10.60000000	     65.79023308	      5.39331878	     -1.56854068	      0.56134893	      1.06044571	     -0.30572179	      1.31352905	    -13.85331330	      4.94138956	    -61.53300638	    -17.82386922	     -2.73357355	      0.00000000	      1.56331570	     -5.84763661	      1.03528456	    -64.89060626	     -6.59721012	     25.78243695	      0.00000000	      0.00000000	      0.00000000	      0.00000000
     10.61000000	     65.79050617	      5.39726109	     -1.57110928	      0.56135472	      1.06044799	     -0.30571409	      1.31577717	    -13.85854603	      4.93609923	    -61.51962201	    -17.84070760	     -2.74730013	      0.00000000	      1.55630639	     -5.83389981	      1.01630213	    -64.72973950	     -6.61112729	     25.77808674	      0.00000000	      0.00000000	      0.00000000	      0.00000000
